<svg width="16" height="16" xmlns="http://www.w3.org/2000/svg"><path d="M11.576 2.553l-1.389.802a.627.627 0 1 1-.626-1.086l.762-.44-.63-.363-1.09.628c.004.025.005.05.005.075v5.262l1.578.91a.627.627 0 0 1-.626 1.086L7.68 8.342a.625.625 0 0 1-.294-.387.626.626 0 0 1-.03-.195V2.17c0-.035.002-.068.007-.101L6.32 1.466l-.923.533.722.416.047.03a.627.627 0 0 1 .42.592v1.436a.964.964 0 1 1-1.253 0V3.408l-1.189-.686-.932.539v1.947l-1.687.974v1.915h1.32a.633.633 0 0 1 .066-.044l.79-.456a.964.964 0 1 1 .698 1.043l-.861.498a.631.631 0 0 1-.09.043.624.624 0 0 1-.43.17H1.525v.42l1.687.974v1.948l.674.39v-1.227c0-.185.08-.35.208-.466a.624.624 0 0 1 .215-.205l.895-.516a.964.964 0 1 1 .627 1.084l-.692.4v1.653l1.181.682 1.036-.599v-2.033a.627.627 0 0 1 1.253 0v2.005l1.085.627 1.325-.766v-1.77a.627.627 0 0 1 1.253 0V13l.53-.306v-1.308a.634.634 0 0 1-.06-.03l-1.11-.641-1.143.66v1.742a.627.627 0 1 1-1.253 0v-2.03c0-.049.005-.095.015-.14a.626.626 0 0 1 .31-.484l1.483-.855-.001-1.433-1.453-.839a.627.627 0 0 1-.302-.657.634.634 0 0 1-.004-.068V4.923a.627.627 0 0 1 .312-.584l1.796-1.037a.627.627 0 1 1 .626 1.085l-1.481.855v1.193l1.216.702c.004.002.478-.264 1.422-.799a.627.627 0 1 1 .627 1.085l-1.506.87v1.281c0 .025-.001.05-.004.074l1.076.621c.042.025.08.053.113.084l1.008-.582v-.68l-.83.48a.627.627 0 1 1-.627-1.085l1.3-.75c.05-.03.103-.05.157-.065V6.182l-1.012-.584-1.457.841a.627.627 0 1 1-.627-1.085l1.409-.814V3.26l-1.225-.707zm2.426 10.894l-4.257 2.457-.054.03-1.685-.973-1.678.968-.061-.025-4.257-2.457-.052-.034v-1.944L.27 10.495.27 5.459l1.688-.974V2.538l.052-.031L6.267.049l.056-.028 1.683.972L9.692.019l.053.03 4.257 2.458.052.034v1.944l1.687.976v5.031l-1.687.977v1.949l-.052.029z" fill="#949494" fill-rule="nonzero"/></svg>
