<svg xmlns="http://www.w3.org/2000/svg" width="50" height="50" viewBox="0 0 50 50">
    <g fill="none" fill-rule="evenodd">
        <g>
            <path fill="#003873" fill-rule="nonzero" d="M21.096 8.233L7.168.268 1.183 4.72C.51 5.22.37 6.174.871 6.849c.46.618 1.299.787 1.955.425L3 7.16l4.386-3.264 10.668 6.1-.002 6.296 5.57 3.173v11.633l-5.57 3.069.002 6.598-9.93 5.592-4.519-2.423v-5.96c0-.77-.573-1.407-1.315-1.508l-.207-.014c-.77 0-1.407.572-1.507 1.315l-.014.206v7.785L8.16 49.83l12.936-7.284v-6.58l5.57-3.068V17.699l-5.57-3.175v-6.29z" transform="translate(22.499)"/>
            <path fill="#003873" fill-rule="nonzero" d="M12.394 4.718c.698-.468 1.643-.281 2.111.417.43.64.308 1.487-.253 1.984l-.163.127-5.326 3.57c-.698.468-1.643.281-2.11-.417-.43-.64-.309-1.487.252-1.984l.164-.127 5.325-3.57zM18.227 13.898c.698-.468 1.643-.281 2.11.417.43.64.309 1.487-.252 1.984l-.164.127-5.325 3.57c-.698.467-1.643.281-2.111-.417-.43-.64-.308-1.487.253-1.985l.163-.126 5.326-3.57zM23.552 23.843c.698-.468 1.643-.282 2.111.416.43.64.308 1.488-.253 1.985l-.163.126-5.326 3.57c-.698.468-1.643.282-2.11-.416-.43-.64-.309-1.488.252-1.985l.164-.126 5.325-3.57zM13.495 36.335c.77 0 1.407.572 1.508 1.315l.014.206v6.784c0 .84-.682 1.522-1.522 1.522-.77 0-1.407-.572-1.508-1.315l-.014-.207v-6.784c0-.84.682-1.521 1.522-1.521z" transform="translate(22.499)"/>
            <path fill="#0081FF" fill-rule="nonzero" d="M13.727 10.3c.696-.47 1.642-.286 2.112.411.43.639.312 1.487-.248 1.985l-.163.127-5.99 4.037.005 3.681 4.636 2.67 5.448-3.605c.643-.425 1.49-.3 1.983.264l.126.165c.425.642.3 1.489-.264 1.983l-.165.125-7.013 4.643L6.4 22.302l-.007-7.056 7.333-4.946z" transform="translate(22.499)"/>
            <path fill="#003873" stroke="#003873" stroke-linecap="round" stroke-width="3.043" d="M14.129 31.609L19.328 34.669" transform="translate(22.499)"/>
            <path fill="#0081FF" fill-rule="nonzero" d="M14.13 23.477c.77 0 1.406.572 1.507 1.315l.014.207v7.85l-6.214 3.063v6.157c0 .77-.572 1.407-1.315 1.507l-.206.014c-.77 0-1.407-.572-1.508-1.315l-.014-.206V34.02l6.212-3.065.002-5.957c0-.77.572-1.407 1.315-1.508l.206-.014z" transform="translate(22.499)"/>
        </g>
        <path fill="#003873" fill-rule="nonzero" d="M17.584 33.306L19.256 35.849 14.645 38.878 14.646 45.322 11.603 45.322 11.603 37.237zM12.541 22.193L14.215 24.735 8.335 28.606 1.522 28.606 1.522 25.563 7.42 25.562zM12.298 6.719L13.951 4.164 19.942 8.042 19.942 16.148 16.898 16.148 16.898 9.697z"/>
        <path fill="#003873" fill-rule="nonzero" d="M5.57 8.233L19.497.268l6.598 4.908v18.486l5.631 3.599c.65.414.878 1.24.563 1.92l-.1.181c-.414.65-1.24.878-1.92.563l-.18-.1-7.037-4.494V6.704L19.28 3.897l-10.667 6.1.001 6.296-5.57 3.173v11.633l5.57 3.069-.001 6.598 9.929 5.592 4.519-2.423v-5.96c0-.77.573-1.407 1.316-1.508l.206-.014c.77 0 1.407.572 1.508 1.315l.014.206v7.785l-7.599 4.071L5.57 42.546v-6.58L0 32.898V17.699l5.57-3.175v-6.29z"/>
        <ellipse cx="18.242" cy="16.182" fill="#003873" fill-rule="nonzero" rx="2.282" ry="2.295"/>
        <ellipse cx="18.496" cy="34.541" fill="#0081FF" fill-rule="nonzero" rx="2.282" ry="2.295"/>
        <ellipse cx="13.678" cy="23.322" fill="#003873" fill-rule="nonzero" rx="2.282" ry="2.295"/>
    </g>
</svg>
