<svg width="24" height="32" viewBox="0 0 24 32" xmlns="http://www.w3.org/2000/svg"><g fill="none" fill-rule="evenodd"><g fill="#000" fill-rule="nonzero"><path d="M2.905 13.277h18.19c.65 0 1.178.538 1.178 1.203v12.596a1.19 1.19 0 0 1-1.178 1.203H2.905a1.19 1.19 0 0 1-1.178-1.203V14.48a1.19 1.19 0 0 1 1.178-1.203zm.913 2.084v10.833h16.364V15.361H3.818z"/><path d="M17.177 14.334v-4.286c0-3.142-2.518-6.075-5.177-6.075s-5.177 2.933-5.177 6.075v4.286h10.354zm-12.5.369v-4.655c0-4.396 3.534-8.232 7.323-8.232 3.789 0 7.323 3.836 7.323 8.232v4.655H4.677z"/></g><path d="M-5 0h32v32H-5z"/></g></svg>