<?xml version="1.0" encoding="UTF-8"?>
<svg width="20px" height="18px" viewBox="0 0 20 18" version="1.1" xmlns="http://www.w3.org/2000/svg" xmlns:xlink="http://www.w3.org/1999/xlink">
    <g id="Page-1" stroke="none" stroke-width="1" fill="none" fill-rule="evenodd">
        <g id="Xray-Two-factor" fill="#FFCC00" fill-rule="nonzero">
            <g id="Bar">
                <g id="exclamation-triangle-solid">
                    <path d="M19.7749058,15.2782293 C20.4158086,16.3891321 19.6113294,17.7777779 18.33126,17.7777779 L1.66855162,17.7777779 C0.386016899,17.7777779 -0.41474699,16.3869793 0.224905787,15.2782293 L8.55636412,0.832812671 C9.1975794,-0.27861094 10.8035863,-0.276597051 11.4436558,0.832812671 L19.7749058,15.2782293 Z M10.00001,12.2916668 C9.1178919,12.2916668 8.40278773,13.006771 8.40278773,13.8888891 C8.40278773,14.7710071 9.1178919,15.4861113 10.00001,15.4861113 C10.882128,15.4861113 11.5972322,14.7710071 11.5972322,13.8888891 C11.5972322,13.006771 10.882128,12.2916668 10.00001,12.2916668 Z M8.48358634,6.55048628 L8.74115579,11.2727085 C8.7532044,11.4936807 8.93591273,11.6666668 9.15719745,11.6666668 L10.8428225,11.6666668 C11.0641072,11.6666668 11.2468155,11.4936807 11.2588641,11.2727085 L11.5164336,6.55048628 C11.5294544,6.31180573 11.3394197,6.11111128 11.1003919,6.11111128 L8.89959329,6.11111128 C8.66056551,6.11111128 8.47056551,6.31180573 8.48358634,6.55048628 Z" id="warning-icon"></path>
                </g>
            </g>
        </g>
    </g>
</svg>
