<svg xmlns="http://www.w3.org/2000/svg" viewBox="0 0 100 125"><path d="M94.586 17.414l-5.201 5.202C80.504 9.893 65.807 2 50 2 25.004 2 4.465 20.762 2.219 45.641A4.003 4.003 0 0 0 6.207 50a4 4 0 0 0 3.98-3.641C12.059 25.633 29.172 10 50 10c13.661 0 26.33 7.072 33.627 18.373l-6.213 6.213c-1.26 1.26-.367 3.414 1.414 3.414H96a2 2 0 0 0 2-2V18.828c0-1.781-2.154-2.674-3.414-1.414zM94.156 50.016c-2.18-.211-4.145 1.422-4.344 3.625C87.941 74.367 70.828 90 50 90c-13.625 0-26.31-7.096-33.61-18.391l6.195-6.195c1.26-1.26.368-3.414-1.414-3.414H4a2 2 0 0 0-2 2v17.172c0 1.782 2.154 2.674 3.414 1.414l5.199-5.199C19.499 90.099 34.237 98 50 98c24.996 0 45.535-18.762 47.781-43.641a4.002 4.002 0 0 0-3.625-4.343z"/></svg>