<svg width="60" height="64" xmlns="http://www.w3.org/2000/svg"><g fill="#000" fill-rule="evenodd"><path d="M30 43c6.075 0 11-4.925 11-11s-4.925-11-11-11-11 4.925-11 11 4.925 11 11 11zm0-4a7 7 0 1 1 0-14 7 7 0 0 1 0 14z"/><path d="M5.241 28.514a25.201 25.201 0 0 0-.03 6.744c.095.735.184 1.078.184 1.078L1.612 40.14l.297-.246C.13 41.099-.43 43.538.645 45.402l3 5.196c1.08 1.87 3.464 2.6 5.401 1.659l-.362.134 4.24-1.123.856-.243a25.003 25.003 0 0 0 6.36 3.954c.759.327 1.275.5 1.275.5l1.37 5.053-.064-.38C22.874 62.294 24.706 64 26.857 64h6.001c2.16 0 3.983-1.7 4.137-3.848l-.065.38 1.34-4.933a24.948 24.948 0 0 0 6.888-3.717c.627-.479.97-.79.97-.79l4.903 1.3-.362-.135c1.932.938 4.326.205 5.401-1.659l3-5.196c1.08-1.87.52-4.3-1.264-5.507l.298.246-3.523-3.56c.508-2.748.555-5.56.14-8.324-.04-.287-.086-.573-.137-.858l3.52-3.54-.298.246c1.78-1.204 2.34-3.643 1.265-5.507l-3-5.196c-1.08-1.87-3.464-2.6-5.402-1.659l.362-.134-4.855 1.329a24.992 24.992 0 0 0-6.78-4.111c-.719-.292-1.121-.4-1.121-.4l-1.345-4.96.065.381C36.842 1.706 35.01 0 32.858 0h-6c-2.16 0-3.984 1.7-4.137 3.848l.064-.38-1.33 5.03a24.977 24.977 0 0 0-6.715 3.698c-.616.475-.92.773-.92.773l-5.136-1.36.362.134c-1.931-.938-4.325-.205-5.4 1.659L.644 18.598c-1.08 1.87-.52 4.3 1.264 5.507l-.297-.246 3.777 3.799s-.056.199-.148.856h.001zm3.724-2.932l-4.517-4.543a2 2 0 0 0-.297-.247c-.047-.031-.072-.142-.042-.194l3-5.196c.027-.046.145-.083.19-.06a2 2 0 0 0 .361.134l6.15 1.628a2 2 0 0 0 1.876-.47 20.978 20.978 0 0 1 7.986-4.664A2 2 0 0 0 25 10.586l1.646-6.072a2 2 0 0 0 .064-.38c.004-.057.088-.134.147-.134h6.001c.053 0 .144.084.147.133a2 2 0 0 0 .065.381l1.62 5.976a2 2 0 0 0 1.355 1.393 20.97 20.97 0 0 1 8.211 4.697 2 2 0 0 0 1.87.466l5.93-1.57a2 2 0 0 0 .361-.135c.05-.024.16.009.19.06l3 5.197c.026.046-.001.167-.042.194a2 2 0 0 0-.298.247l-4.285 4.31a2 2 0 0 0-.53 1.864A21.05 21.05 0 0 1 51 32c0 1.628-.185 3.23-.548 4.787a2 2 0 0 0 .53 1.864l4.285 4.31a2 2 0 0 0 .298.247c.046.031.072.142.042.194l-3 5.196c-.027.046-.145.083-.19.06a2 2 0 0 0-.362-.134l-5.929-1.57a2 2 0 0 0-1.87.466 20.97 20.97 0 0 1-8.21 4.697 2 2 0 0 0-1.356 1.393l-1.62 5.976a2 2 0 0 0-.065.38c-.004.057-.087.134-.147.134h-6c-.054 0-.144-.084-.148-.133a2 2 0 0 0-.064-.381L25 53.414a2 2 0 0 0-1.328-1.384 20.978 20.978 0 0 1-7.986-4.664 2 2 0 0 0-1.876-.47l-6.15 1.628a2 2 0 0 0-.362.135c-.05.024-.159-.009-.189-.06l-3-5.197c-.027-.046.001-.167.042-.194a2 2 0 0 0 .297-.247l4.517-4.543a2 2 0 0 0 .534-1.843 21.193 21.193 0 0 1 .001-9.15 2 2 0 0 0-.535-1.843z"/></g></svg>