<svg width="19" height="19" xmlns="http://www.w3.org/2000/svg"><g fill="none" fill-rule="evenodd"><rect stroke="#99B9F9" fill="#EBF1FE" x=".5" y=".5" width="18" height="18" rx="2"/><path d="M8.654 11.297c0 .698-.252 1.246-.757 1.643-.505.398-1.202.596-2.09.596-.888 0-1.615-.137-2.18-.413v-1.214c.358.168.738.3 1.141.397a4.84 4.84 0 0 0 1.125.145c.509 0 .884-.096 1.126-.29a.946.946 0 0 0 .362-.778.976.976 0 0 0-.333-.747c-.222-.204-.68-.446-1.375-.725-.716-.29-1.22-.621-1.515-.994-.293-.372-.44-.82-.44-1.343 0-.655.233-1.17.698-1.546.466-.376 1.09-.564 1.875-.564.752 0 1.5.164 2.245.494l-.408 1.047c-.699-.293-1.322-.44-1.87-.44-.415 0-.73.09-.945.27a.89.89 0 0 0-.322.718c0 .204.043.379.129.524.086.145.227.282.424.41.197.13.552.3 1.064.51.576.24.999.465 1.267.672.269.208.466.442.591.704.125.261.188.57.188.924zm6.72-3.347c0 .82-.27 1.449-.806 1.886-.537.437-1.302.655-2.294.655h-.816v2.938h-1.284V5.576h2.261c.981 0 1.716.2 2.205.602.489.401.733.992.733 1.772zm-3.916 1.461h.682c.659 0 1.142-.114 1.45-.343.308-.23.462-.588.462-1.075 0-.45-.138-.787-.414-1.01-.275-.221-.705-.332-1.289-.332h-.891v2.76z" fill="#0081ff"/></g></svg>
