<svg width="110" height="18" xmlns="http://www.w3.org/2000/svg"><g fill-rule="nonzero" fill="none"><path d="M34.533 17.756V12h-6.377v5.754h-2.543V3.892h2.543v5.754h6.377V3.898h2.525V17.76l-2.525-.004zm13.15-.737c-.812.561-1.979.894-3.541.894-1.96 0-3.586-.58-4.505-1.947-.547-.755-.866-1.79-.866-3.087 0-1.229.319-2.245.919-3.018.902-1.242 2.437-1.982 4.433-1.982 2.102 0 3.542.755 4.364 1.913.723 1.016.988 2.483.865 3.965h-8.25c.024.559.265 1.086.673 1.473.458.473 1.325.807 2.367.807a4.164 4.164 0 002.012-.456c.513-.281.76-.668.796-.912h2.331c-.21.958-.781 1.8-1.598 2.35zm-1.237-6.403c-.477-.439-1.183-.807-2.315-.807-1.058 0-1.835.317-2.348.772-.408.368-.66.876-.708 1.421h5.919a1.88 1.88 0 00-.548-1.386zm4.733 7.14c-.052-.035-.07-.157-.07-.72V4.846c0-.474-.017-.896-.036-1.054h2.369c.054.295.078.595.07.894v12.176c0 .507 0 .807.053.894h-2.386zm4.367-10.771v-2.35h2.5v2.35h-2.5zm2.544 10.77h-2.367c-.09-.034-.125-.245-.125-.947v-8.7H58v8.65c0 .7.019.946.09.998zm9.12 0l-.052-1.367c-.69 1.122-2.156 1.525-3.568 1.525-2.225 0-3.621-.859-3.621-3.068 0-5.86-.019-6.685-.09-6.737h2.413c.035 0 .054.35.054 6.087 0 1.333.917 1.806 2.17 1.806 1.574 0 2.563-.755 2.563-1.947V8.108h2.367v8.086c-.01.521.007 1.043.052 1.562H67.21zm17.26-5.858c0-.965-.37-1.825-1.995-1.825-1.183 0-2.137.65-2.137 1.876v5.808h-2.26v-6c0-1.035-.726-1.684-1.945-1.684-1.36 0-2.208.93-2.208 1.93v5.754H71.54V8.108h2.333v1.544c.417-1.089 1.731-1.738 3.18-1.738 1.447 0 2.595.58 3.02 1.754.387-1.175 1.625-1.754 3.231-1.754 2.473 0 3.334 1.316 3.334 3.14 0 4.054.016 6.621.087 6.702h-2.142c-.112 0-.112-2.446-.112-5.86zm9.76 5.859V6.722l-3.428.474V5.214c2.898-.414 3.71-.86 3.958-1.386h1.96v13.928h-2.49zm15.443-10.368c.208.964.231 2.104.231 3.439 0 1.088-.125 2.702-.337 3.49-.625 2.483-2.402 3.615-5.298 3.615-2.986 0-4.63-1.035-5.3-3.631-.265-.948-.336-2.386-.336-3.493 0-1.316-.016-2.21.248-3.403.477-2.262 2.244-3.68 5.404-3.68 3.127 0 4.894 1.576 5.388 3.663zm-2.56.561c-.23-1.262-1.184-2.034-2.828-2.034-1.677 0-2.666.772-2.879 2.034-.087.62-.158 2.123-.158 2.878-.003.993.073 1.984.23 2.965.264 1.35 1.237 1.998 2.807 1.998 1.571 0 2.5-.718 2.773-1.998.125-.544.209-2.123.209-2.984.008-.955-.043-1.91-.154-2.859z" fill="#003873"/><path d="M.125 3.896v5.756H4.54v-3.36L.125 3.896zm6.958 2.396v3.36H11.5V3.896L7.083 6.292zm6.96-3.774v7.134h4.415V.124l-4.414 2.394z" fill="#0081FF"/><path d="M.125 12.002H4.54v5.754H.125v-5.754zm6.958 0h4.415v5.754H7.083v-5.754zm6.96 0h4.415v5.754h-4.414v-5.754z" fill="#003873"/></g></svg>